<svg width="48" height="48" viewBox="0 0 48 48" fill="none" xmlns="http://www.w3.org/2000/svg">
<g clip-path="url(#clip0_15_7)">
<path d="M1.71436 25.7144H46.2858" stroke="#ffffff" stroke-width="3.42857" stroke-linecap="round" stroke-linejoin="round"/>
<path d="M13.7144 1.71436H34.2858C37.4684 1.71436 40.5206 2.97864 42.7711 5.22907C45.0215 7.47951 46.2858 10.5318 46.2858 13.7144C46.2858 14.6237 45.9246 15.4957 45.2816 16.1387C44.6386 16.7817 43.7665 17.1429 42.8572 17.1429H5.14293C4.23361 17.1429 3.36154 16.7817 2.71856 16.1387C2.07558 15.4957 1.71436 14.6237 1.71436 13.7144C1.71436 10.5318 2.97864 7.47951 5.22907 5.22907C7.47951 2.97864 10.5318 1.71436 13.7144 1.71436Z" stroke="#ffffff" stroke-width="3.42857" stroke-linecap="round" stroke-linejoin="round"/>
<path d="M44.5715 34.2859H24.0001L18.8572 39.4287L8.5715 34.2859H3.42864C2.97398 34.2859 2.53795 34.4665 2.21646 34.788C1.89497 35.1095 1.71436 35.5455 1.71436 36.0002C1.71436 38.7281 2.79803 41.3443 4.72697 43.2733C6.65592 45.2022 9.27213 46.2859 12.0001 46.2859H36.0001C38.728 46.2859 41.3442 45.2022 43.2732 43.2733C45.2021 41.3443 46.2858 38.7281 46.2858 36.0002C46.2858 35.5455 46.1052 35.1095 45.7837 34.788C45.4622 34.4665 45.0262 34.2859 44.5715 34.2859Z" stroke="#ffffff" stroke-width="3.42857" stroke-linecap="round" stroke-linejoin="round"/>
</g>
<defs>
<clipPath id="clip0_15_7">
<rect width="48" height="48" fill="white"/>
</clipPath>
</defs>
</svg>
