<svg width="48" height="48" viewBox="0 0 48 48" fill="none" xmlns="http://www.w3.org/2000/svg">
<g clip-path="url(#clip0_15_12)">
<path d="M24.0066 24.8571C23.7792 24.8571 23.5612 24.7668 23.4005 24.6061C23.2397 24.4453 23.1494 24.2273 23.1494 24C23.1494 23.7726 23.2397 23.5546 23.4005 23.3939C23.5612 23.2331 23.7792 23.1428 24.0066 23.1428" stroke="#ffffff" stroke-width="3.42857" stroke-linecap="round" stroke-linejoin="round"/>
<path d="M24.0063 24.8571C24.2337 24.8571 24.4517 24.7668 24.6124 24.6061C24.7732 24.4453 24.8635 24.2273 24.8635 24C24.8635 23.7726 24.7732 23.5546 24.6124 23.3939C24.4517 23.2331 24.2337 23.1428 24.0063 23.1428" stroke="#ffffff" stroke-width="3.42857" stroke-linecap="round" stroke-linejoin="round"/>
<path d="M14.5783 24.8571C14.351 24.8571 14.133 24.7668 13.9722 24.6061C13.8115 24.4453 13.7212 24.2273 13.7212 24C13.7212 23.7726 13.8115 23.5546 13.9722 23.3939C14.133 23.2331 14.351 23.1428 14.5783 23.1428" stroke="#ffffff" stroke-width="3.42857" stroke-linecap="round" stroke-linejoin="round"/>
<path d="M14.5781 24.8571C14.8055 24.8571 15.0235 24.7668 15.1842 24.6061C15.345 24.4453 15.4353 24.2273 15.4353 24C15.4353 23.7726 15.345 23.5546 15.1842 23.3939C15.0235 23.2331 14.8055 23.1428 14.5781 23.1428" stroke="#ffffff" stroke-width="3.42857" stroke-linecap="round" stroke-linejoin="round"/>
<path d="M33.4353 24.8571C33.2079 24.8571 32.9899 24.7668 32.8292 24.6061C32.6684 24.4453 32.5781 24.2273 32.5781 24C32.5781 23.7726 32.6684 23.5546 32.8292 23.3939C32.9899 23.2331 33.2079 23.1428 33.4353 23.1428" stroke="#ffffff" stroke-width="3.42857" stroke-linecap="round" stroke-linejoin="round"/>
<path d="M33.4351 24.8571C33.6624 24.8571 33.8804 24.7668 34.0412 24.6061C34.2019 24.4453 34.2922 24.2273 34.2922 24C34.2922 23.7726 34.2019 23.5546 34.0412 23.3939C33.8804 23.2331 33.6624 23.1428 33.4351 23.1428" stroke="#ffffff" stroke-width="3.42857" stroke-linecap="round" stroke-linejoin="round"/>
<path d="M23.9931 1.91993C19.999 1.92111 16.0801 3.00566 12.6536 5.05805C9.22723 7.11044 6.42169 10.0538 4.53584 13.5746C2.65 17.0955 1.75449 21.0619 1.9447 25.0514C2.1349 29.041 3.4037 32.9042 5.61594 36.2296L1.91309 46.0799L14.3142 43.8376C17.2999 45.2968 20.5764 46.0632 23.8995 46.0796C27.2227 46.0961 30.5066 45.3623 33.5066 43.9329C36.5067 42.5035 39.1453 40.4153 41.2259 37.8241C43.3065 35.2329 44.7754 32.2055 45.5231 28.9675C46.2707 25.7296 46.2779 22.3646 45.5439 19.1235C44.81 15.8824 43.354 12.8488 41.2843 10.2488C39.2147 7.64879 36.5849 5.54947 33.591 4.10735C30.5971 2.66523 27.3162 1.91751 23.9931 1.91993Z" stroke="#ffffff" stroke-width="3.42857" stroke-linecap="round" stroke-linejoin="round"/>
</g>
<defs>
<clipPath id="clip0_15_12">
<rect width="48" height="48" fill="white"/>
</clipPath>
</defs>
</svg>
