<svg width="48" height="48" viewBox="0 0 48 48" fill="none" xmlns="http://www.w3.org/2000/svg">
<path d="M17.9315 7.71436L19.4058 3.90864C19.6544 3.26429 20.0919 2.71005 20.6608 2.31851C21.2298 1.92697 21.9037 1.7164 22.5944 1.71436H25.4058C26.0964 1.7164 26.7704 1.92697 27.3393 2.31851C27.9083 2.71005 28.3457 3.26429 28.5944 3.90864L30.0686 7.71436L35.0744 10.5944L39.1201 9.97721C39.7937 9.88577 40.4794 9.99667 41.0899 10.2958C41.7003 10.5949 42.2081 11.0688 42.5486 11.6572L43.9201 14.0572C44.2715 14.655 44.4334 15.3453 44.3844 16.0369C44.3355 16.7286 44.0779 17.3892 43.6458 17.9315L41.1429 21.1201V26.8801L43.7144 30.0686C44.1465 30.6109 44.404 31.2715 44.453 31.9632C44.502 32.6549 44.3401 33.3452 43.9886 33.9429L42.6172 36.3429C42.2767 36.9313 41.7689 37.4052 41.1584 37.7043C40.5479 38.0035 39.8623 38.1144 39.1886 38.0229L35.1429 37.4058L30.1372 40.2858L28.6629 44.0915C28.4143 44.7358 27.9769 45.2901 27.4079 45.6816C26.839 46.0732 26.165 46.2837 25.4744 46.2858H22.5944C21.9037 46.2837 21.2298 46.0732 20.6608 45.6816C20.0919 45.2901 19.6544 44.7358 19.4058 44.0915L17.9315 40.2858L12.9258 37.4058L8.88007 38.0229C8.20642 38.1144 7.52078 38.0035 6.9103 37.7043C6.29981 37.4052 5.79204 36.9313 5.4515 36.3429L4.08007 33.9429C3.72865 33.3452 3.56674 32.6549 3.61571 31.9632C3.66468 31.2715 3.92222 30.6109 4.35436 30.0686L6.85722 26.8801V21.1201L4.28579 17.9315C3.85365 17.3892 3.59611 16.7286 3.54714 16.0369C3.49817 15.3453 3.66008 14.655 4.0115 14.0572L5.38293 11.6572C5.72347 11.0688 6.23124 10.5949 6.84173 10.2958C7.45221 9.99667 8.13785 9.88577 8.8115 9.97721L12.8572 10.5944L17.9315 7.71436ZM17.1429 24.0001C17.1429 25.8187 17.8654 27.5628 19.1513 28.8488C20.4373 30.1348 22.1814 30.8572 24.0001 30.8572C25.8187 30.8572 27.5628 30.1348 28.8488 28.8488C30.1348 27.5628 30.8572 25.8187 30.8572 24.0001C30.8572 22.1814 30.1348 20.4373 28.8488 19.1513C27.5628 17.8654 25.8187 17.1429 24.0001 17.1429C22.1814 17.1429 20.4373 17.8654 19.1513 19.1513C17.8654 20.4373 17.1429 22.1814 17.1429 24.0001Z" stroke="#ffffff" stroke-width="3.42857" stroke-linecap="round" stroke-linejoin="round"/>
</svg>
